<?xml version="1.0" encoding="UTF-8" standalone="no"?><svg xmlns="http://www.w3.org/2000/svg" xmlns:xlink="http://www.w3.org/1999/xlink" contentScriptType="application/ecmascript" contentStyleType="text/css" height="766px" preserveAspectRatio="none" style="width:1257px;height:766px;" version="1.1" viewBox="0 0 1257 766" width="1257px" zoomAndPan="magnify"><defs><filter height="300%" id="flq68a0zggsdw" width="300%" x="-1" y="-1"><feGaussianBlur result="blurOut" stdDeviation="2.0"/><feColorMatrix in="blurOut" result="blurOut2" type="matrix" values="0 0 0 0 0 0 0 0 0 0 0 0 0 0 0 0 0 0 .4 0"/><feOffset dx="4.0" dy="4.0" in="blurOut2" result="blurOut3"/><feBlend in="SourceGraphic" in2="blurOut3" mode="normal"/></filter></defs><g><path d="M867.5,8 L867.5,88.8241 L1158.5,88.8241 L1158.5,18 L1148.5,8 L867.5,8 " fill="#FBFB77" filter="url(#flq68a0zggsdw)" style="stroke: #A80036; stroke-width: 1.0;"/><path d="M1148.5,8 L1148.5,18 L1158.5,18 L1148.5,8 " fill="#FBFB77" style="stroke: #A80036; stroke-width: 1.0;"/><text fill="#000000" font-family="sans-serif" font-size="13" lengthAdjust="spacingAndGlyphs" textLength="270" x="873.5" y="26.897">publicNames are displayed to other Accounts</text><text fill="#000000" font-family="sans-serif" font-size="13" lengthAdjust="spacingAndGlyphs" textLength="136" x="873.5" y="44.603">They should be unique</text><text fill="#000000" font-family="sans-serif" font-size="13" lengthAdjust="spacingAndGlyphs" textLength="0" x="876.5" y="62.309"/><text fill="#000000" font-family="sans-serif" font-size="13" lengthAdjust="spacingAndGlyphs" textLength="251" x="873.5" y="80.0151">Names and Content are subject to change</text><!--MD5=[f9a29335b499db729be669fd1bd54958]
class Account--><rect fill="#FEFECE" filter="url(#flq68a0zggsdw)" height="77.9638" id="Account" style="stroke: #A80036; stroke-width: 1.5;" width="112" x="721" y="9.5"/><ellipse cx="751.75" cy="25.5" fill="#ADD1B2" rx="11" ry="11" style="stroke: #A80036; stroke-width: 1.0;"/><path d="M754.7188,31.1406 Q754.1406,31.4375 753.5,31.5781 Q752.8594,31.7344 752.1563,31.7344 Q749.6563,31.7344 748.3281,30.0938 Q747.0156,28.4375 747.0156,25.3125 Q747.0156,22.1875 748.3281,20.5313 Q749.6563,18.875 752.1563,18.875 Q752.8594,18.875 753.5,19.0313 Q754.1563,19.1875 754.7188,19.4844 L754.7188,22.2031 Q754.0938,21.625 753.5,21.3594 Q752.9063,21.0781 752.2813,21.0781 Q750.9375,21.0781 750.25,22.1563 Q749.5625,23.2188 749.5625,25.3125 Q749.5625,27.4063 750.25,28.4844 Q750.9375,29.5469 752.2813,29.5469 Q752.9063,29.5469 753.5,29.2813 Q754.0938,29 754.7188,28.4219 L754.7188,31.1406 Z "/><text fill="#000000" font-family="sans-serif" font-size="12" lengthAdjust="spacingAndGlyphs" textLength="45" x="769.25" y="30.156">Account</text><line style="stroke: #A80036; stroke-width: 1.5;" x1="722" x2="832" y1="41.5" y2="41.5"/><text fill="#000000" font-family="sans-serif" font-size="11" lengthAdjust="spacingAndGlyphs" textLength="44" x="727" y="57.2589">id: UUID</text><text fill="#000000" font-family="sans-serif" font-size="11" lengthAdjust="spacingAndGlyphs" textLength="100" x="727" y="72.2408">publicName: String</text><line style="stroke: #A80036; stroke-width: 1.5;" x1="722" x2="832" y1="79.4638" y2="79.4638"/><!--MD5=[85bae912d113bb0b86a623a745020199]
class Home--><rect fill="#FEFECE" filter="url(#flq68a0zggsdw)" height="77.9638" id="Home" style="stroke: #A80036; stroke-width: 1.5;" width="112" x="573" y="9.5"/><ellipse cx="608.7" cy="25.5" fill="#ADD1B2" rx="11" ry="11" style="stroke: #A80036; stroke-width: 1.0;"/><path d="M611.6688,31.1406 Q611.0906,31.4375 610.45,31.5781 Q609.8094,31.7344 609.1063,31.7344 Q606.6063,31.7344 605.2781,30.0938 Q603.9656,28.4375 603.9656,25.3125 Q603.9656,22.1875 605.2781,20.5313 Q606.6063,18.875 609.1063,18.875 Q609.8094,18.875 610.45,19.0313 Q611.1063,19.1875 611.6688,19.4844 L611.6688,22.2031 Q611.0438,21.625 610.45,21.3594 Q609.8563,21.0781 609.2313,21.0781 Q607.8875,21.0781 607.2,22.1563 Q606.5125,23.2188 606.5125,25.3125 Q606.5125,27.4063 607.2,28.4844 Q607.8875,29.5469 609.2313,29.5469 Q609.8563,29.5469 610.45,29.2813 Q611.0438,29 611.6688,28.4219 L611.6688,31.1406 Z "/><text fill="#000000" font-family="sans-serif" font-size="12" lengthAdjust="spacingAndGlyphs" textLength="34" x="627.3" y="30.156">Home</text><line style="stroke: #A80036; stroke-width: 1.5;" x1="574" x2="684" y1="41.5" y2="41.5"/><text fill="#000000" font-family="sans-serif" font-size="11" lengthAdjust="spacingAndGlyphs" textLength="44" x="579" y="57.2589">id: UUID</text><text fill="#000000" font-family="sans-serif" font-size="11" lengthAdjust="spacingAndGlyphs" textLength="100" x="579" y="72.2408">publicName: String</text><line style="stroke: #A80036; stroke-width: 1.5;" x1="574" x2="684" y1="79.4638" y2="79.4638"/><!--MD5=[d01ae262f00db94ff0a9832d216e65ae]
class AccountHome--><rect fill="#FEFECE" filter="url(#flq68a0zggsdw)" height="92.9457" id="AccountHome" style="stroke: #A80036; stroke-width: 1.5;" width="119" x="717.5" y="168"/><ellipse cx="736.1" cy="184" fill="#ADD1B2" rx="11" ry="11" style="stroke: #A80036; stroke-width: 1.0;"/><path d="M739.0688,189.6406 Q738.4906,189.9375 737.85,190.0781 Q737.2094,190.2344 736.5063,190.2344 Q734.0063,190.2344 732.6781,188.5938 Q731.3656,186.9375 731.3656,183.8125 Q731.3656,180.6875 732.6781,179.0313 Q734.0063,177.375 736.5063,177.375 Q737.2094,177.375 737.85,177.5313 Q738.5063,177.6875 739.0688,177.9844 L739.0688,180.7031 Q738.4438,180.125 737.85,179.8594 Q737.2563,179.5781 736.6313,179.5781 Q735.2875,179.5781 734.6,180.6563 Q733.9125,181.7188 733.9125,183.8125 Q733.9125,185.9063 734.6,186.9844 Q735.2875,188.0469 736.6313,188.0469 Q737.2563,188.0469 737.85,187.7813 Q738.4438,187.5 739.0688,186.9219 L739.0688,189.6406 Z "/><text fill="#000000" font-family="sans-serif" font-size="12" lengthAdjust="spacingAndGlyphs" textLength="79" x="750.9" y="188.656">AccountHome</text><line style="stroke: #A80036; stroke-width: 1.5;" x1="718.5" x2="835.5" y1="200" y2="200"/><text fill="#000000" font-family="sans-serif" font-size="11" lengthAdjust="spacingAndGlyphs" textLength="86" x="723.5" y="215.7589">accountId: UUID</text><text fill="#000000" font-family="sans-serif" font-size="11" lengthAdjust="spacingAndGlyphs" textLength="75" x="723.5" y="230.7408">homeId: UUID</text><text fill="#000000" font-family="sans-serif" font-size="11" lengthAdjust="spacingAndGlyphs" textLength="107" x="723.5" y="245.7227">joinedAt: Timestamp</text><line style="stroke: #A80036; stroke-width: 1.5;" x1="718.5" x2="835.5" y1="252.9457" y2="252.9457"/><path d="M51.5,200.5 L51.5,228.206 L534.5,228.206 L534.5,210.5 L524.5,200.5 L51.5,200.5 " fill="#FBFB77" filter="url(#flq68a0zggsdw)" style="stroke: #A80036; stroke-width: 1.0;"/><path d="M524.5,200.5 L524.5,210.5 L534.5,210.5 L524.5,200.5 " fill="#FBFB77" style="stroke: #A80036; stroke-width: 1.0;"/><text fill="#000000" font-family="sans-serif" font-size="13" lengthAdjust="spacingAndGlyphs" textLength="462" x="57.5" y="219.397">many-to-many relationship (Account and Home) - PK (accountId and homeId)</text><!--MD5=[41314a0efc36828092cff9ebad2fcafd]
class Group--><rect fill="#FEFECE" filter="url(#flq68a0zggsdw)" height="77.9638" id="Group" style="stroke: #A80036; stroke-width: 1.5;" width="112" x="570" y="175.5"/><ellipse cx="605.25" cy="191.5" fill="#ADD1B2" rx="11" ry="11" style="stroke: #A80036; stroke-width: 1.0;"/><path d="M608.2188,197.1406 Q607.6406,197.4375 607,197.5781 Q606.3594,197.7344 605.6563,197.7344 Q603.1563,197.7344 601.8281,196.0938 Q600.5156,194.4375 600.5156,191.3125 Q600.5156,188.1875 601.8281,186.5313 Q603.1563,184.875 605.6563,184.875 Q606.3594,184.875 607,185.0313 Q607.6563,185.1875 608.2188,185.4844 L608.2188,188.2031 Q607.5938,187.625 607,187.3594 Q606.4063,187.0781 605.7813,187.0781 Q604.4375,187.0781 603.75,188.1563 Q603.0625,189.2188 603.0625,191.3125 Q603.0625,193.4063 603.75,194.4844 Q604.4375,195.5469 605.7813,195.5469 Q606.4063,195.5469 607,195.2813 Q607.5938,195 608.2188,194.4219 L608.2188,197.1406 Z "/><text fill="#000000" font-family="sans-serif" font-size="12" lengthAdjust="spacingAndGlyphs" textLength="35" x="623.75" y="196.156">Group</text><line style="stroke: #A80036; stroke-width: 1.5;" x1="571" x2="681" y1="207.5" y2="207.5"/><text fill="#000000" font-family="sans-serif" font-size="11" lengthAdjust="spacingAndGlyphs" textLength="44" x="576" y="223.2589">id: UUID</text><text fill="#000000" font-family="sans-serif" font-size="11" lengthAdjust="spacingAndGlyphs" textLength="100" x="576" y="238.2408">publicName: String</text><line style="stroke: #A80036; stroke-width: 1.5;" x1="571" x2="681" y1="245.4638" y2="245.4638"/><!--MD5=[77e0b605413a3de2ffd2565e3731112d]
class Plant--><rect fill="#FEFECE" filter="url(#flq68a0zggsdw)" height="107.9276" id="Plant" style="stroke: #A80036; stroke-width: 1.5;" width="143" x="554.5" y="340"/><ellipse cx="607.75" cy="356" fill="#ADD1B2" rx="11" ry="11" style="stroke: #A80036; stroke-width: 1.0;"/><path d="M610.7188,361.6406 Q610.1406,361.9375 609.5,362.0781 Q608.8594,362.2344 608.1563,362.2344 Q605.6563,362.2344 604.3281,360.5938 Q603.0156,358.9375 603.0156,355.8125 Q603.0156,352.6875 604.3281,351.0313 Q605.6563,349.375 608.1563,349.375 Q608.8594,349.375 609.5,349.5313 Q610.1563,349.6875 610.7188,349.9844 L610.7188,352.7031 Q610.0938,352.125 609.5,351.8594 Q608.9063,351.5781 608.2813,351.5781 Q606.9375,351.5781 606.25,352.6563 Q605.5625,353.7188 605.5625,355.8125 Q605.5625,357.9063 606.25,358.9844 Q606.9375,360.0469 608.2813,360.0469 Q608.9063,360.0469 609.5,359.7813 Q610.0938,359.5 610.7188,358.9219 L610.7188,361.6406 Z "/><text fill="#000000" font-family="sans-serif" font-size="12" lengthAdjust="spacingAndGlyphs" textLength="28" x="628.25" y="360.656">Plant</text><line style="stroke: #A80036; stroke-width: 1.5;" x1="555.5" x2="696.5" y1="372" y2="372"/><text fill="#000000" font-family="sans-serif" font-size="11" lengthAdjust="spacingAndGlyphs" textLength="44" x="560.5" y="387.7589">id: UUID</text><text fill="#000000" font-family="sans-serif" font-size="11" lengthAdjust="spacingAndGlyphs" textLength="100" x="560.5" y="402.7408">publicName: String</text><text fill="#000000" font-family="sans-serif" font-size="11" lengthAdjust="spacingAndGlyphs" textLength="113" x="560.5" y="417.7227">scientificName: String</text><text fill="#000000" font-family="sans-serif" font-size="11" lengthAdjust="spacingAndGlyphs" textLength="131" x="560.5" y="432.7046">metadata: PlantMetadata</text><line style="stroke: #A80036; stroke-width: 1.5;" x1="555.5" x2="696.5" y1="439.9276" y2="439.9276"/><!--MD5=[c2723014d9b10ba72e7b24c8bd625480]
class PlantCareDone--><rect fill="#FEFECE" filter="url(#flq68a0zggsdw)" height="122.9094" id="PlantCareDone" style="stroke: #A80036; stroke-width: 1.5;" width="141" x="311.5" y="509"/><ellipse cx="337.3" cy="525" fill="#ADD1B2" rx="11" ry="11" style="stroke: #A80036; stroke-width: 1.0;"/><path d="M340.2688,530.6406 Q339.6906,530.9375 339.05,531.0781 Q338.4094,531.2344 337.7063,531.2344 Q335.2063,531.2344 333.8781,529.5938 Q332.5656,527.9375 332.5656,524.8125 Q332.5656,521.6875 333.8781,520.0313 Q335.2063,518.375 337.7063,518.375 Q338.4094,518.375 339.05,518.5313 Q339.7063,518.6875 340.2688,518.9844 L340.2688,521.7031 Q339.6438,521.125 339.05,520.8594 Q338.4563,520.5781 337.8313,520.5781 Q336.4875,520.5781 335.8,521.6563 Q335.1125,522.7188 335.1125,524.8125 Q335.1125,526.9063 335.8,527.9844 Q336.4875,529.0469 337.8313,529.0469 Q338.4563,529.0469 339.05,528.7813 Q339.6438,528.5 340.2688,527.9219 L340.2688,530.6406 Z "/><text fill="#000000" font-family="sans-serif" font-size="12" lengthAdjust="spacingAndGlyphs" textLength="85" x="353.7" y="529.656">PlantCareDone</text><line style="stroke: #A80036; stroke-width: 1.5;" x1="312.5" x2="451.5" y1="541" y2="541"/><text fill="#000000" font-family="sans-serif" font-size="11" lengthAdjust="spacingAndGlyphs" textLength="44" x="317.5" y="556.7589">id: UUID</text><text fill="#000000" font-family="sans-serif" font-size="11" lengthAdjust="spacingAndGlyphs" textLength="101" x="317.5" y="571.7408">rule: PlantCareRule</text><text fill="#000000" font-family="sans-serif" font-size="11" lengthAdjust="spacingAndGlyphs" textLength="116" x="317.5" y="586.7227">completedBy: Account</text><text fill="#000000" font-family="sans-serif" font-size="11" lengthAdjust="spacingAndGlyphs" textLength="129" x="317.5" y="601.7046">completedAt: Timestamp</text><text fill="#000000" font-family="sans-serif" font-size="11" lengthAdjust="spacingAndGlyphs" textLength="72" x="317.5" y="616.6865">details: String</text><line style="stroke: #A80036; stroke-width: 1.5;" x1="312.5" x2="451.5" y1="623.9094" y2="623.9094"/><path d="M6,556.5 L6,584.206 A0,0 0 0 0 6,584.206 L276,584.206 A0,0 0 0 0 276,584.206 L276,574.5 L311.26,570.5 L276,566.5 L276,566.5 L266,556.5 L6,556.5 A0,0 0 0 0 6,556.5 " fill="#FBFB77" filter="url(#flq68a0zggsdw)" style="stroke: #A80036; stroke-width: 1.0;"/><path d="M266,556.5 L266,566.5 L276,566.5 L266,556.5 " fill="#FBFB77" style="stroke: #A80036; stroke-width: 1.0;"/><text fill="#000000" font-family="sans-serif" font-size="13" lengthAdjust="spacingAndGlyphs" textLength="249" x="12" y="575.397">account has taken care of a plant / history</text><!--MD5=[a8d31a8c7ff055ccafa84176f39e4ca9]
class WateringPlantCareDone--><rect fill="#FEFECE" filter="url(#flq68a0zggsdw)" height="48" id="WateringPlantCareDone" style="stroke: #A80036; stroke-width: 1.5;" width="168" x="42" y="700.5"/><ellipse cx="57" cy="716.5" fill="#ADD1B2" rx="11" ry="11" style="stroke: #A80036; stroke-width: 1.0;"/><path d="M59.9688,722.1406 Q59.3906,722.4375 58.75,722.5781 Q58.1094,722.7344 57.4063,722.7344 Q54.9063,722.7344 53.5781,721.0938 Q52.2656,719.4375 52.2656,716.3125 Q52.2656,713.1875 53.5781,711.5313 Q54.9063,709.875 57.4063,709.875 Q58.1094,709.875 58.75,710.0313 Q59.4063,710.1875 59.9688,710.4844 L59.9688,713.2031 Q59.3438,712.625 58.75,712.3594 Q58.1563,712.0781 57.5313,712.0781 Q56.1875,712.0781 55.5,713.1563 Q54.8125,714.2188 54.8125,716.3125 Q54.8125,718.4063 55.5,719.4844 Q56.1875,720.5469 57.5313,720.5469 Q58.1563,720.5469 58.75,720.2813 Q59.3438,720 59.9688,719.4219 L59.9688,722.1406 Z "/><text fill="#000000" font-family="sans-serif" font-size="12" lengthAdjust="spacingAndGlyphs" textLength="136" x="71" y="721.156">WateringPlantCareDone</text><line style="stroke: #A80036; stroke-width: 1.5;" x1="43" x2="209" y1="732.5" y2="732.5"/><line style="stroke: #A80036; stroke-width: 1.5;" x1="43" x2="209" y1="740.5" y2="740.5"/><!--MD5=[560cd315fc83ef501de3b9cb542462cb]
class SunlightPlantCareDone--><rect fill="#FEFECE" filter="url(#flq68a0zggsdw)" height="48" id="SunlightPlantCareDone" style="stroke: #A80036; stroke-width: 1.5;" width="162" x="245" y="700.5"/><ellipse cx="260" cy="716.5" fill="#ADD1B2" rx="11" ry="11" style="stroke: #A80036; stroke-width: 1.0;"/><path d="M262.9688,722.1406 Q262.3906,722.4375 261.75,722.5781 Q261.1094,722.7344 260.4063,722.7344 Q257.9063,722.7344 256.5781,721.0938 Q255.2656,719.4375 255.2656,716.3125 Q255.2656,713.1875 256.5781,711.5313 Q257.9063,709.875 260.4063,709.875 Q261.1094,709.875 261.75,710.0313 Q262.4063,710.1875 262.9688,710.4844 L262.9688,713.2031 Q262.3438,712.625 261.75,712.3594 Q261.1563,712.0781 260.5313,712.0781 Q259.1875,712.0781 258.5,713.1563 Q257.8125,714.2188 257.8125,716.3125 Q257.8125,718.4063 258.5,719.4844 Q259.1875,720.5469 260.5313,720.5469 Q261.1563,720.5469 261.75,720.2813 Q262.3438,720 262.9688,719.4219 L262.9688,722.1406 Z "/><text fill="#000000" font-family="sans-serif" font-size="12" lengthAdjust="spacingAndGlyphs" textLength="130" x="274" y="721.156">SunlightPlantCareDone</text><line style="stroke: #A80036; stroke-width: 1.5;" x1="246" x2="406" y1="732.5" y2="732.5"/><line style="stroke: #A80036; stroke-width: 1.5;" x1="246" x2="406" y1="740.5" y2="740.5"/><!--MD5=[81fb4f6fee824eb5ccf133cbe51d8d40]
class PruningPlantCareDone--><rect fill="#FEFECE" filter="url(#flq68a0zggsdw)" height="48" id="PruningPlantCareDone" style="stroke: #A80036; stroke-width: 1.5;" width="160" x="442" y="700.5"/><ellipse cx="457" cy="716.5" fill="#ADD1B2" rx="11" ry="11" style="stroke: #A80036; stroke-width: 1.0;"/><path d="M459.9688,722.1406 Q459.3906,722.4375 458.75,722.5781 Q458.1094,722.7344 457.4063,722.7344 Q454.9063,722.7344 453.5781,721.0938 Q452.2656,719.4375 452.2656,716.3125 Q452.2656,713.1875 453.5781,711.5313 Q454.9063,709.875 457.4063,709.875 Q458.1094,709.875 458.75,710.0313 Q459.4063,710.1875 459.9688,710.4844 L459.9688,713.2031 Q459.3438,712.625 458.75,712.3594 Q458.1563,712.0781 457.5313,712.0781 Q456.1875,712.0781 455.5,713.1563 Q454.8125,714.2188 454.8125,716.3125 Q454.8125,718.4063 455.5,719.4844 Q456.1875,720.5469 457.5313,720.5469 Q458.1563,720.5469 458.75,720.2813 Q459.3438,720 459.9688,719.4219 L459.9688,722.1406 Z "/><text fill="#000000" font-family="sans-serif" font-size="12" lengthAdjust="spacingAndGlyphs" textLength="128" x="471" y="721.156">PruningPlantCareDone</text><line style="stroke: #A80036; stroke-width: 1.5;" x1="443" x2="601" y1="732.5" y2="732.5"/><line style="stroke: #A80036; stroke-width: 1.5;" x1="443" x2="601" y1="740.5" y2="740.5"/><!--MD5=[4238b1353a5de7a689bba7a57c30afac]
class PlantCareRule--><rect fill="#FEFECE" filter="url(#flq68a0zggsdw)" height="107.9276" id="PlantCareRule" style="stroke: #A80036; stroke-width: 1.5;" width="112" x="759" y="516.5"/><ellipse cx="774.45" cy="532.5" fill="#ADD1B2" rx="11" ry="11" style="stroke: #A80036; stroke-width: 1.0;"/><path d="M777.4188,538.1406 Q776.8406,538.4375 776.2,538.5781 Q775.5594,538.7344 774.8563,538.7344 Q772.3563,538.7344 771.0281,537.0938 Q769.7156,535.4375 769.7156,532.3125 Q769.7156,529.1875 771.0281,527.5313 Q772.3563,525.875 774.8563,525.875 Q775.5594,525.875 776.2,526.0313 Q776.8563,526.1875 777.4188,526.4844 L777.4188,529.2031 Q776.7938,528.625 776.2,528.3594 Q775.6063,528.0781 774.9813,528.0781 Q773.6375,528.0781 772.95,529.1563 Q772.2625,530.2188 772.2625,532.3125 Q772.2625,534.4063 772.95,535.4844 Q773.6375,536.5469 774.9813,536.5469 Q775.6063,536.5469 776.2,536.2813 Q776.7938,536 777.4188,535.4219 L777.4188,538.1406 Z "/><text fill="#000000" font-family="sans-serif" font-size="12" lengthAdjust="spacingAndGlyphs" textLength="79" x="788.55" y="537.156">PlantCareRule</text><line style="stroke: #A80036; stroke-width: 1.5;" x1="760" x2="870" y1="548.5" y2="548.5"/><text fill="#000000" font-family="sans-serif" font-size="11" lengthAdjust="spacingAndGlyphs" textLength="44" x="765" y="564.2589">id: UUID</text><text fill="#000000" font-family="sans-serif" font-size="11" lengthAdjust="spacingAndGlyphs" textLength="60" x="765" y="579.2408">active: bool</text><text fill="#000000" font-family="sans-serif" font-size="11" lengthAdjust="spacingAndGlyphs" textLength="62" x="765" y="594.2227">cron: String</text><text fill="#000000" font-family="sans-serif" font-size="11" lengthAdjust="spacingAndGlyphs" textLength="100" x="765" y="609.2046">instructions: String</text><line style="stroke: #A80036; stroke-width: 1.5;" x1="760" x2="870" y1="616.4276" y2="616.4276"/><path d="M906.5,556.5 L906.5,566.5 L871.05,570.5 L906.5,574.5 L906.5,584.206 A0,0 0 0 0 906.5,584.206 L1133.5,584.206 A0,0 0 0 0 1133.5,584.206 L1133.5,566.5 L1123.5,556.5 L906.5,556.5 A0,0 0 0 0 906.5,556.5 " fill="#FBFB77" filter="url(#flq68a0zggsdw)" style="stroke: #A80036; stroke-width: 1.0;"/><path d="M1123.5,556.5 L1123.5,566.5 L1133.5,566.5 L1123.5,556.5 " fill="#FBFB77" style="stroke: #A80036; stroke-width: 1.0;"/><text fill="#000000" font-family="sans-serif" font-size="13" lengthAdjust="spacingAndGlyphs" textLength="206" x="912.5" y="575.397">cron defines the repetition interval</text><!--MD5=[3d7f0d4af41450c2db1b33603a3720f9]
class WateringPlantCareRule--><rect fill="#FEFECE" filter="url(#flq68a0zggsdw)" height="62.9819" id="WateringPlantCareRule" style="stroke: #A80036; stroke-width: 1.5;" width="162" x="637" y="693"/><ellipse cx="652" cy="709" fill="#ADD1B2" rx="11" ry="11" style="stroke: #A80036; stroke-width: 1.0;"/><path d="M654.9688,714.6406 Q654.3906,714.9375 653.75,715.0781 Q653.1094,715.2344 652.4063,715.2344 Q649.9063,715.2344 648.5781,713.5938 Q647.2656,711.9375 647.2656,708.8125 Q647.2656,705.6875 648.5781,704.0313 Q649.9063,702.375 652.4063,702.375 Q653.1094,702.375 653.75,702.5313 Q654.4063,702.6875 654.9688,702.9844 L654.9688,705.7031 Q654.3438,705.125 653.75,704.8594 Q653.1563,704.5781 652.5313,704.5781 Q651.1875,704.5781 650.5,705.6563 Q649.8125,706.7188 649.8125,708.8125 Q649.8125,710.9063 650.5,711.9844 Q651.1875,713.0469 652.5313,713.0469 Q653.1563,713.0469 653.75,712.7813 Q654.3438,712.5 654.9688,711.9219 L654.9688,714.6406 Z "/><text fill="#000000" font-family="sans-serif" font-size="12" lengthAdjust="spacingAndGlyphs" textLength="130" x="666" y="713.656">WateringPlantCareRule</text><line style="stroke: #A80036; stroke-width: 1.5;" x1="638" x2="798" y1="725" y2="725"/><text fill="#000000" font-family="sans-serif" font-size="11" lengthAdjust="spacingAndGlyphs" textLength="120" x="643" y="740.7589">waterAmount: Amount</text><line style="stroke: #A80036; stroke-width: 1.5;" x1="638" x2="798" y1="747.9819" y2="747.9819"/><!--MD5=[125b699aed6a99bf32ac3c8b68242fd5]
class SunlightPlantCareRule--><rect fill="#FEFECE" filter="url(#flq68a0zggsdw)" height="62.9819" id="SunlightPlantCareRule" style="stroke: #A80036; stroke-width: 1.5;" width="156" x="834" y="693"/><ellipse cx="849" cy="709" fill="#ADD1B2" rx="11" ry="11" style="stroke: #A80036; stroke-width: 1.0;"/><path d="M851.9688,714.6406 Q851.3906,714.9375 850.75,715.0781 Q850.1094,715.2344 849.4063,715.2344 Q846.9063,715.2344 845.5781,713.5938 Q844.2656,711.9375 844.2656,708.8125 Q844.2656,705.6875 845.5781,704.0313 Q846.9063,702.375 849.4063,702.375 Q850.1094,702.375 850.75,702.5313 Q851.4063,702.6875 851.9688,702.9844 L851.9688,705.7031 Q851.3438,705.125 850.75,704.8594 Q850.1563,704.5781 849.5313,704.5781 Q848.1875,704.5781 847.5,705.6563 Q846.8125,706.7188 846.8125,708.8125 Q846.8125,710.9063 847.5,711.9844 Q848.1875,713.0469 849.5313,713.0469 Q850.1563,713.0469 850.75,712.7813 Q851.3438,712.5 851.9688,711.9219 L851.9688,714.6406 Z "/><text fill="#000000" font-family="sans-serif" font-size="12" lengthAdjust="spacingAndGlyphs" textLength="124" x="863" y="713.656">SunlightPlantCareRule</text><line style="stroke: #A80036; stroke-width: 1.5;" x1="835" x2="989" y1="725" y2="725"/><text fill="#000000" font-family="sans-serif" font-size="11" lengthAdjust="spacingAndGlyphs" textLength="143" x="840" y="740.7589">sunlightDuration: Duration</text><line style="stroke: #A80036; stroke-width: 1.5;" x1="835" x2="989" y1="747.9819" y2="747.9819"/><!--MD5=[f1a9d9999206a6502e473ad79034c783]
class PruningPlantCareRule--><rect fill="#FEFECE" filter="url(#flq68a0zggsdw)" height="62.9819" id="PruningPlantCareRule" style="stroke: #A80036; stroke-width: 1.5;" width="221" x="1025.5" y="693"/><ellipse cx="1070.75" cy="709" fill="#ADD1B2" rx="11" ry="11" style="stroke: #A80036; stroke-width: 1.0;"/><path d="M1073.7188,714.6406 Q1073.1406,714.9375 1072.5,715.0781 Q1071.8594,715.2344 1071.1563,715.2344 Q1068.6563,715.2344 1067.3281,713.5938 Q1066.0156,711.9375 1066.0156,708.8125 Q1066.0156,705.6875 1067.3281,704.0313 Q1068.6563,702.375 1071.1563,702.375 Q1071.8594,702.375 1072.5,702.5313 Q1073.1563,702.6875 1073.7188,702.9844 L1073.7188,705.7031 Q1073.0938,705.125 1072.5,704.8594 Q1071.9063,704.5781 1071.2813,704.5781 Q1069.9375,704.5781 1069.25,705.6563 Q1068.5625,706.7188 1068.5625,708.8125 Q1068.5625,710.9063 1069.25,711.9844 Q1069.9375,713.0469 1071.2813,713.0469 Q1071.9063,713.0469 1072.5,712.7813 Q1073.0938,712.5 1073.7188,711.9219 L1073.7188,714.6406 Z "/><text fill="#000000" font-family="sans-serif" font-size="12" lengthAdjust="spacingAndGlyphs" textLength="122" x="1091.25" y="713.656">PruningPlantCareRule</text><line style="stroke: #A80036; stroke-width: 1.5;" x1="1026.5" x2="1245.5" y1="725" y2="725"/><text fill="#000000" font-family="sans-serif" font-size="11" lengthAdjust="spacingAndGlyphs" textLength="209" x="1031.5" y="740.7589">amount: enum LITTLE, MORE, MUCH ???</text><line style="stroke: #A80036; stroke-width: 1.5;" x1="1026.5" x2="1245.5" y1="747.9819" y2="747.9819"/><!--MD5=[bc81e8bb7a4f32c0e714fc9812763133]
link GMN6 to AccountHome--><path d="M316.02,200.36 C377.21,164.69 548.32,77.37 681.5,128.5 C702.95,136.74 722.6,152.27 738.43,167.89 " fill="none" id="GMN6-AccountHome" style="stroke: #A80036; stroke-width: 1.0; stroke-dasharray: 7.0,7.0;"/><!--MD5=[a428817c21f0cd12437738ab953af195]
link Account to AccountHome--><path d="M777,87.54 C777,111.48 777,142.51 777,167.79 " fill="none" id="Account-AccountHome" style="stroke: #A80036; stroke-width: 1.0;"/><text fill="#000000" font-family="sans-serif" font-size="13" lengthAdjust="spacingAndGlyphs" textLength="7" x="769.4203" y="109.3723">1</text><text fill="#000000" font-family="sans-serif" font-size="13" lengthAdjust="spacingAndGlyphs" textLength="7" x="769.4641" y="156.2912">*</text><!--MD5=[5eb0ac19e2a900fdc810779785cccf00]
link Home to AccountHome--><path d="M663.33,87.54 C684.93,111.48 712.94,142.51 735.75,167.79 " fill="none" id="Home-AccountHome" style="stroke: #A80036; stroke-width: 1.0;"/><text fill="#000000" font-family="sans-serif" font-size="13" lengthAdjust="spacingAndGlyphs" textLength="7" x="661.4362" y="109.3723">1</text><text fill="#000000" font-family="sans-serif" font-size="13" lengthAdjust="spacingAndGlyphs" textLength="7" x="721.8977" y="156.2912">*</text><!--MD5=[131449dba1ace9d8b48afde3d2e33c23]
reverse link Home to Group--><path d="M628.06,100.81 C627.62,124.94 627.1,153.2 626.7,175.39 " fill="none" id="Home&lt;-Group" style="stroke: #A80036; stroke-width: 1.0;"/><polygon fill="#A80036" points="628.3,87.54,624.1886,93.4642,628.0759,99.5379,632.1872,93.6137,628.3,87.54" style="stroke: #A80036; stroke-width: 1.0;"/><text fill="#000000" font-family="sans-serif" font-size="13" lengthAdjust="spacingAndGlyphs" textLength="21" x="629" y="133.897">has</text><text fill="#000000" font-family="sans-serif" font-size="13" lengthAdjust="spacingAndGlyphs" textLength="7" x="620.6044" y="109.3723">1</text><text fill="#000000" font-family="sans-serif" font-size="13" lengthAdjust="spacingAndGlyphs" textLength="20" x="604.9853" y="163.5773">1..*</text><!--MD5=[29276b2f0f27820fd4b9804fe7403805]
reverse link Group to Plant--><path d="M626,266.88 C626,289.78 626,316.73 626,339.84 " fill="none" id="Group&lt;-Plant" style="stroke: #A80036; stroke-width: 1.0;"/><polygon fill="#A80036" points="626,253.58,622,259.58,626,265.58,630,259.58,626,253.58" style="stroke: #A80036; stroke-width: 1.0;"/><text fill="#000000" font-family="sans-serif" font-size="13" lengthAdjust="spacingAndGlyphs" textLength="51" x="627" y="305.897">contains</text><text fill="#000000" font-family="sans-serif" font-size="13" lengthAdjust="spacingAndGlyphs" textLength="7" x="618.4203" y="275.4189">1</text><text fill="#000000" font-family="sans-serif" font-size="13" lengthAdjust="spacingAndGlyphs" textLength="7" x="618.5297" y="328.3694">*</text><!--MD5=[0e43a9c57a9ce4af99c3bc0fe2ab4477]
reverse link Plant to PlantCareDone--><path d="M543.73,453.83 C514.2,474.95 481.18,498.57 452.72,518.93 " fill="none" id="Plant&lt;-PlantCareDone" style="stroke: #A80036; stroke-width: 1.0;"/><polygon fill="#A80036" points="554.44,446.18,547.2327,446.4153,544.6779,453.1586,551.8851,452.9233,554.44,446.18" style="stroke: #A80036; stroke-width: 1.0;"/><text fill="#000000" font-family="sans-serif" font-size="13" lengthAdjust="spacingAndGlyphs" textLength="7" x="539.6994" y="447.6217">1</text><text fill="#000000" font-family="sans-serif" font-size="13" lengthAdjust="spacingAndGlyphs" textLength="7" x="460.3739" y="509.6734">*</text><!--MD5=[2822dac39073e91d0506a782f442d3dc]
reverse link Plant to PlantCareRule--><path d="M693.18,457.02 C714.64,476.84 738.17,498.56 758.77,517.59 " fill="none" id="Plant&lt;-PlantCareRule" style="stroke: #A80036; stroke-width: 1.0;"/><polygon fill="#A80036" points="683.48,448.07,685.1787,455.0782,692.3012,456.2055,690.6024,449.1974,683.48,448.07" style="stroke: #A80036; stroke-width: 1.0;"/><text fill="#000000" font-family="sans-serif" font-size="13" lengthAdjust="spacingAndGlyphs" textLength="7" x="683.0588" y="469.6402">1</text><text fill="#000000" font-family="sans-serif" font-size="13" lengthAdjust="spacingAndGlyphs" textLength="7" x="744.1171" y="506.6687">*</text><!--MD5=[d38820e7a380f555dfad32c9b2592890]
reverse link PlantCareDone to WateringPlantCareDone--><path d="M294.42,631.13 C293.95,631.42 293.47,631.71 293,632 C252.53,656.76 204.96,682.51 170.96,700.37 " fill="none" id="PlantCareDone&lt;-WateringPlantCareDone" style="stroke: #A80036; stroke-width: 1.0;"/><polygon fill="none" points="290.83,625.12,311.48,620.34,298.32,636.95,290.83,625.12" style="stroke: #A80036; stroke-width: 1.0;"/><!--MD5=[f41205bb91ec515cd349e18f79002977]
reverse link PlantCareDone to SunlightPlantCareDone--><path d="M352.77,650.84 C346.09,668.98 339.5,686.87 334.53,700.36 " fill="none" id="PlantCareDone&lt;-SunlightPlantCareDone" style="stroke: #A80036; stroke-width: 1.0;"/><polygon fill="none" points="346.22,648.36,359.71,632.01,359.36,653.2,346.22,648.36" style="stroke: #A80036; stroke-width: 1.0;"/><!--MD5=[1a5eb897aff4aaf54f343ae652541dbe]
reverse link PlantCareDone to PruningPlantCareDone--><path d="M451.38,646.82 C469.33,666.32 487.34,685.87 500.68,700.36 " fill="none" id="PlantCareDone&lt;-PruningPlantCareDone" style="stroke: #A80036; stroke-width: 1.0;"/><polygon fill="none" points="446.13,651.46,437.73,632.01,456.43,641.98,446.13,651.46" style="stroke: #A80036; stroke-width: 1.0;"/><!--MD5=[7c0d1495333b4f964f9c83e9ac76391a]
reverse link PlantCareRule to WateringPlantCareRule--><path d="M770.26,641.61 C758.8,659.56 747.07,677.95 737.63,692.75 " fill="none" id="PlantCareRule&lt;-WateringPlantCareRule" style="stroke: #A80036; stroke-width: 1.0;"/><polygon fill="none" points="764.41,637.76,781.07,624.66,776.22,645.29,764.41,637.76" style="stroke: #A80036; stroke-width: 1.0;"/><!--MD5=[6ce6b2bf610e286c1654702b1dbe32d0]
reverse link PlantCareRule to SunlightPlantCareRule--><path d="M859.74,641.61 C871.2,659.56 882.93,677.95 892.37,692.75 " fill="none" id="PlantCareRule&lt;-SunlightPlantCareRule" style="stroke: #A80036; stroke-width: 1.0;"/><polygon fill="none" points="853.78,645.29,848.93,624.66,865.59,637.76,853.78,645.29" style="stroke: #A80036; stroke-width: 1.0;"/><!--MD5=[5d58aab51843f1a3f233e1f895556260]
reverse link PlantCareRule to PruningPlantCareRule--><path d="M888.45,631.68 C888.63,631.79 888.82,631.89 889,632 C933.05,657.22 985.34,677.78 1030.44,692.97 " fill="none" id="PlantCareRule&lt;-PruningPlantCareRule" style="stroke: #A80036; stroke-width: 1.0;"/><polygon fill="none" points="884.42,637.42,871.42,620.69,892.02,625.66,884.42,637.42" style="stroke: #A80036; stroke-width: 1.0;"/><!--MD5=[efb0af8ecd4a89928535bb8fa756f1de]
@startuml

note as N1
  publicNames are displayed to other Accounts
  They should be unique

  Names and Content are subject to change
end note

class Account {
  id: UUID
  publicName: String
}

class Home {
  id: UUID
  publicName: String
}

class AccountHome {
  accountId: UUID
  homeId: UUID
  joinedAt: Timestamp
}
note left: many-to-many relationship (Account and Home) - PK (accountId and homeId)

class Group {
  id: UUID
  publicName: String
}

class Plant {
  id: UUID
  publicName: String
  scientificName: String
  metadata: PlantMetadata
}

class PlantCareDone {
  id: UUID
  rule: PlantCareRule
  completedBy: Account
  completedAt: Timestamp
  details: String
}
note left: account has taken care of a plant / history

class WateringPlantCareDone {}

class SunlightPlantCareDone {}

class PruningPlantCareDone {}

class PlantCareRule {
  id: UUID
  active: bool
  cron: String
  instructions: String
}
note right: cron defines the repetition interval

class WateringPlantCareRule {
  waterAmount: Amount
}

class SunlightPlantCareRule {
  sunlightDuration: Duration
}

class PruningPlantCareRule {
  amount: enum LITTLE, MORE, MUCH ???
}

Account "1" - - "*" AccountHome
Home "1" - - "*" AccountHome
Home "1" *- - "1..*" Group : has
Group "1" *- - "*" Plant : contains

Plant "1" *- - "*" PlantCareDone
Plant "1" *- - "*" PlantCareRule

PlantCareDone <|- - WateringPlantCareDone
PlantCareDone <|- - SunlightPlantCareDone
PlantCareDone <|- - PruningPlantCareDone

PlantCareRule <|- - WateringPlantCareRule
PlantCareRule <|- - SunlightPlantCareRule
PlantCareRule <|- - PruningPlantCareRule

@enduml

PlantUML version 1.2020.02(Sun Mar 01 11:22:07 CET 2020)
(GPL source distribution)
Java Runtime: OpenJDK Runtime Environment
JVM: OpenJDK 64-Bit Server VM
Java Version: 21.0.5+11-LTS
Operating System: Linux
Default Encoding: UTF-8
Language: en
Country: US
--></g></svg>