<?xml version="1.0" encoding="UTF-8" standalone="no"?><svg xmlns="http://www.w3.org/2000/svg" xmlns:xlink="http://www.w3.org/1999/xlink" contentScriptType="application/ecmascript" contentStyleType="text/css" height="766px" preserveAspectRatio="none" style="width:1235px;height:766px;" version="1.1" viewBox="0 0 1235 766" width="1235px" zoomAndPan="magnify"><defs><filter height="300%" id="f1ns028k1c6kjm" width="300%" x="-1" y="-1"><feGaussianBlur result="blurOut" stdDeviation="2.0"/><feColorMatrix in="blurOut" result="blurOut2" type="matrix" values="0 0 0 0 0 0 0 0 0 0 0 0 0 0 0 0 0 0 .4 0"/><feOffset dx="4.0" dy="4.0" in="blurOut2" result="blurOut3"/><feBlend in="SourceGraphic" in2="blurOut3" mode="normal"/></filter></defs><g><path d="M846,8 L846,88.8241 L1118,88.8241 L1118,18 L1108,8 L846,8 " fill="#FBFB77" filter="url(#f1ns028k1c6kjm)" style="stroke: #A80036; stroke-width: 1.0;"/><path d="M1108,8 L1108,18 L1118,18 L1108,8 " fill="#FBFB77" style="stroke: #A80036; stroke-width: 1.0;"/><text fill="#000000" font-family="sans-serif" font-size="13" lengthAdjust="spacingAndGlyphs" textLength="249" x="852" y="26.897">publicNames are displayed to other Users</text><text fill="#000000" font-family="sans-serif" font-size="13" lengthAdjust="spacingAndGlyphs" textLength="136" x="852" y="44.603">They should be unique</text><text fill="#000000" font-family="sans-serif" font-size="13" lengthAdjust="spacingAndGlyphs" textLength="0" x="855" y="62.309"/><text fill="#000000" font-family="sans-serif" font-size="13" lengthAdjust="spacingAndGlyphs" textLength="251" x="852" y="80.0151">Names and Content are subject to change</text><!--MD5=[3fd616f346a44cd59a91eb10b19e157c]
class User--><rect fill="#FEFECE" filter="url(#f1ns028k1c6kjm)" height="77.9638" id="User" style="stroke: #A80036; stroke-width: 1.5;" width="112" x="699" y="9.5"/><ellipse cx="737.85" cy="25.5" fill="#ADD1B2" rx="11" ry="11" style="stroke: #A80036; stroke-width: 1.0;"/><path d="M740.8188,31.1406 Q740.2406,31.4375 739.6,31.5781 Q738.9594,31.7344 738.2563,31.7344 Q735.7563,31.7344 734.4281,30.0938 Q733.1156,28.4375 733.1156,25.3125 Q733.1156,22.1875 734.4281,20.5313 Q735.7563,18.875 738.2563,18.875 Q738.9594,18.875 739.6,19.0313 Q740.2563,19.1875 740.8188,19.4844 L740.8188,22.2031 Q740.1938,21.625 739.6,21.3594 Q739.0063,21.0781 738.3813,21.0781 Q737.0375,21.0781 736.35,22.1563 Q735.6625,23.2188 735.6625,25.3125 Q735.6625,27.4063 736.35,28.4844 Q737.0375,29.5469 738.3813,29.5469 Q739.0063,29.5469 739.6,29.2813 Q740.1938,29 740.8188,28.4219 L740.8188,31.1406 Z "/><text fill="#000000" font-family="sans-serif" font-size="12" lengthAdjust="spacingAndGlyphs" textLength="27" x="757.15" y="30.156">User</text><line style="stroke: #A80036; stroke-width: 1.5;" x1="700" x2="810" y1="41.5" y2="41.5"/><text fill="#000000" font-family="sans-serif" font-size="11" lengthAdjust="spacingAndGlyphs" textLength="44" x="705" y="57.2589">id: UUID</text><text fill="#000000" font-family="sans-serif" font-size="11" lengthAdjust="spacingAndGlyphs" textLength="100" x="705" y="72.2408">publicName: String</text><line style="stroke: #A80036; stroke-width: 1.5;" x1="700" x2="810" y1="79.4638" y2="79.4638"/><!--MD5=[85bae912d113bb0b86a623a745020199]
class Home--><rect fill="#FEFECE" filter="url(#f1ns028k1c6kjm)" height="77.9638" id="Home" style="stroke: #A80036; stroke-width: 1.5;" width="112" x="551" y="9.5"/><ellipse cx="586.7" cy="25.5" fill="#ADD1B2" rx="11" ry="11" style="stroke: #A80036; stroke-width: 1.0;"/><path d="M589.6688,31.1406 Q589.0906,31.4375 588.45,31.5781 Q587.8094,31.7344 587.1063,31.7344 Q584.6063,31.7344 583.2781,30.0938 Q581.9656,28.4375 581.9656,25.3125 Q581.9656,22.1875 583.2781,20.5313 Q584.6063,18.875 587.1063,18.875 Q587.8094,18.875 588.45,19.0313 Q589.1063,19.1875 589.6688,19.4844 L589.6688,22.2031 Q589.0438,21.625 588.45,21.3594 Q587.8563,21.0781 587.2313,21.0781 Q585.8875,21.0781 585.2,22.1563 Q584.5125,23.2188 584.5125,25.3125 Q584.5125,27.4063 585.2,28.4844 Q585.8875,29.5469 587.2313,29.5469 Q587.8563,29.5469 588.45,29.2813 Q589.0438,29 589.6688,28.4219 L589.6688,31.1406 Z "/><text fill="#000000" font-family="sans-serif" font-size="12" lengthAdjust="spacingAndGlyphs" textLength="34" x="605.3" y="30.156">Home</text><line style="stroke: #A80036; stroke-width: 1.5;" x1="552" x2="662" y1="41.5" y2="41.5"/><text fill="#000000" font-family="sans-serif" font-size="11" lengthAdjust="spacingAndGlyphs" textLength="44" x="557" y="57.2589">id: UUID</text><text fill="#000000" font-family="sans-serif" font-size="11" lengthAdjust="spacingAndGlyphs" textLength="100" x="557" y="72.2408">publicName: String</text><line style="stroke: #A80036; stroke-width: 1.5;" x1="552" x2="662" y1="79.4638" y2="79.4638"/><!--MD5=[f2cf7ace0e09b7586073307e8c70cc19]
class UserHome--><rect fill="#FEFECE" filter="url(#f1ns028k1c6kjm)" height="92.9457" id="UserHome" style="stroke: #A80036; stroke-width: 1.5;" width="119" x="695.5" y="168"/><ellipse cx="722.2" cy="184" fill="#ADD1B2" rx="11" ry="11" style="stroke: #A80036; stroke-width: 1.0;"/><path d="M725.1688,189.6406 Q724.5906,189.9375 723.95,190.0781 Q723.3094,190.2344 722.6063,190.2344 Q720.1063,190.2344 718.7781,188.5938 Q717.4656,186.9375 717.4656,183.8125 Q717.4656,180.6875 718.7781,179.0313 Q720.1063,177.375 722.6063,177.375 Q723.3094,177.375 723.95,177.5313 Q724.6063,177.6875 725.1688,177.9844 L725.1688,180.7031 Q724.5438,180.125 723.95,179.8594 Q723.3563,179.5781 722.7313,179.5781 Q721.3875,179.5781 720.7,180.6563 Q720.0125,181.7188 720.0125,183.8125 Q720.0125,185.9063 720.7,186.9844 Q721.3875,188.0469 722.7313,188.0469 Q723.3563,188.0469 723.95,187.7813 Q724.5438,187.5 725.1688,186.9219 L725.1688,189.6406 Z "/><text fill="#000000" font-family="sans-serif" font-size="12" lengthAdjust="spacingAndGlyphs" textLength="61" x="738.8" y="188.656">UserHome</text><line style="stroke: #A80036; stroke-width: 1.5;" x1="696.5" x2="813.5" y1="200" y2="200"/><text fill="#000000" font-family="sans-serif" font-size="11" lengthAdjust="spacingAndGlyphs" textLength="68" x="701.5" y="215.7589">userId: UUID</text><text fill="#000000" font-family="sans-serif" font-size="11" lengthAdjust="spacingAndGlyphs" textLength="75" x="701.5" y="230.7408">homeId: UUID</text><text fill="#000000" font-family="sans-serif" font-size="11" lengthAdjust="spacingAndGlyphs" textLength="107" x="701.5" y="245.7227">joinedAt: Timestamp</text><line style="stroke: #A80036; stroke-width: 1.5;" x1="696.5" x2="813.5" y1="252.9457" y2="252.9457"/><path d="M73,200.5 L73,228.206 L513,228.206 L513,210.5 L503,200.5 L73,200.5 " fill="#FBFB77" filter="url(#f1ns028k1c6kjm)" style="stroke: #A80036; stroke-width: 1.0;"/><path d="M503,200.5 L503,210.5 L513,210.5 L503,200.5 " fill="#FBFB77" style="stroke: #A80036; stroke-width: 1.0;"/><text fill="#000000" font-family="sans-serif" font-size="13" lengthAdjust="spacingAndGlyphs" textLength="419" x="79" y="219.397">many-to-many relationship (User and Home) - PK (userId and homeId)</text><!--MD5=[41314a0efc36828092cff9ebad2fcafd]
class Group--><rect fill="#FEFECE" filter="url(#f1ns028k1c6kjm)" height="77.9638" id="Group" style="stroke: #A80036; stroke-width: 1.5;" width="112" x="548" y="175.5"/><ellipse cx="583.25" cy="191.5" fill="#ADD1B2" rx="11" ry="11" style="stroke: #A80036; stroke-width: 1.0;"/><path d="M586.2188,197.1406 Q585.6406,197.4375 585,197.5781 Q584.3594,197.7344 583.6563,197.7344 Q581.1563,197.7344 579.8281,196.0938 Q578.5156,194.4375 578.5156,191.3125 Q578.5156,188.1875 579.8281,186.5313 Q581.1563,184.875 583.6563,184.875 Q584.3594,184.875 585,185.0313 Q585.6563,185.1875 586.2188,185.4844 L586.2188,188.2031 Q585.5938,187.625 585,187.3594 Q584.4063,187.0781 583.7813,187.0781 Q582.4375,187.0781 581.75,188.1563 Q581.0625,189.2188 581.0625,191.3125 Q581.0625,193.4063 581.75,194.4844 Q582.4375,195.5469 583.7813,195.5469 Q584.4063,195.5469 585,195.2813 Q585.5938,195 586.2188,194.4219 L586.2188,197.1406 Z "/><text fill="#000000" font-family="sans-serif" font-size="12" lengthAdjust="spacingAndGlyphs" textLength="35" x="601.75" y="196.156">Group</text><line style="stroke: #A80036; stroke-width: 1.5;" x1="549" x2="659" y1="207.5" y2="207.5"/><text fill="#000000" font-family="sans-serif" font-size="11" lengthAdjust="spacingAndGlyphs" textLength="44" x="554" y="223.2589">id: UUID</text><text fill="#000000" font-family="sans-serif" font-size="11" lengthAdjust="spacingAndGlyphs" textLength="100" x="554" y="238.2408">publicName: String</text><line style="stroke: #A80036; stroke-width: 1.5;" x1="549" x2="659" y1="245.4638" y2="245.4638"/><!--MD5=[77e0b605413a3de2ffd2565e3731112d]
class Plant--><rect fill="#FEFECE" filter="url(#f1ns028k1c6kjm)" height="107.9276" id="Plant" style="stroke: #A80036; stroke-width: 1.5;" width="143" x="532.5" y="340"/><ellipse cx="585.75" cy="356" fill="#ADD1B2" rx="11" ry="11" style="stroke: #A80036; stroke-width: 1.0;"/><path d="M588.7188,361.6406 Q588.1406,361.9375 587.5,362.0781 Q586.8594,362.2344 586.1563,362.2344 Q583.6563,362.2344 582.3281,360.5938 Q581.0156,358.9375 581.0156,355.8125 Q581.0156,352.6875 582.3281,351.0313 Q583.6563,349.375 586.1563,349.375 Q586.8594,349.375 587.5,349.5313 Q588.1563,349.6875 588.7188,349.9844 L588.7188,352.7031 Q588.0938,352.125 587.5,351.8594 Q586.9063,351.5781 586.2813,351.5781 Q584.9375,351.5781 584.25,352.6563 Q583.5625,353.7188 583.5625,355.8125 Q583.5625,357.9063 584.25,358.9844 Q584.9375,360.0469 586.2813,360.0469 Q586.9063,360.0469 587.5,359.7813 Q588.0938,359.5 588.7188,358.9219 L588.7188,361.6406 Z "/><text fill="#000000" font-family="sans-serif" font-size="12" lengthAdjust="spacingAndGlyphs" textLength="28" x="606.25" y="360.656">Plant</text><line style="stroke: #A80036; stroke-width: 1.5;" x1="533.5" x2="674.5" y1="372" y2="372"/><text fill="#000000" font-family="sans-serif" font-size="11" lengthAdjust="spacingAndGlyphs" textLength="44" x="538.5" y="387.7589">id: UUID</text><text fill="#000000" font-family="sans-serif" font-size="11" lengthAdjust="spacingAndGlyphs" textLength="100" x="538.5" y="402.7408">publicName: String</text><text fill="#000000" font-family="sans-serif" font-size="11" lengthAdjust="spacingAndGlyphs" textLength="113" x="538.5" y="417.7227">scientificName: String</text><text fill="#000000" font-family="sans-serif" font-size="11" lengthAdjust="spacingAndGlyphs" textLength="131" x="538.5" y="432.7046">metadata: PlantMetadata</text><line style="stroke: #A80036; stroke-width: 1.5;" x1="533.5" x2="674.5" y1="439.9276" y2="439.9276"/><!--MD5=[c2723014d9b10ba72e7b24c8bd625480]
class PlantCareDone--><rect fill="#FEFECE" filter="url(#f1ns028k1c6kjm)" height="122.9094" id="PlantCareDone" style="stroke: #A80036; stroke-width: 1.5;" width="141" x="289.5" y="509"/><ellipse cx="315.3" cy="525" fill="#ADD1B2" rx="11" ry="11" style="stroke: #A80036; stroke-width: 1.0;"/><path d="M318.2688,530.6406 Q317.6906,530.9375 317.05,531.0781 Q316.4094,531.2344 315.7063,531.2344 Q313.2063,531.2344 311.8781,529.5938 Q310.5656,527.9375 310.5656,524.8125 Q310.5656,521.6875 311.8781,520.0313 Q313.2063,518.375 315.7063,518.375 Q316.4094,518.375 317.05,518.5313 Q317.7063,518.6875 318.2688,518.9844 L318.2688,521.7031 Q317.6438,521.125 317.05,520.8594 Q316.4563,520.5781 315.8313,520.5781 Q314.4875,520.5781 313.8,521.6563 Q313.1125,522.7188 313.1125,524.8125 Q313.1125,526.9063 313.8,527.9844 Q314.4875,529.0469 315.8313,529.0469 Q316.4563,529.0469 317.05,528.7813 Q317.6438,528.5 318.2688,527.9219 L318.2688,530.6406 Z "/><text fill="#000000" font-family="sans-serif" font-size="12" lengthAdjust="spacingAndGlyphs" textLength="85" x="331.7" y="529.656">PlantCareDone</text><line style="stroke: #A80036; stroke-width: 1.5;" x1="290.5" x2="429.5" y1="541" y2="541"/><text fill="#000000" font-family="sans-serif" font-size="11" lengthAdjust="spacingAndGlyphs" textLength="44" x="295.5" y="556.7589">id: UUID</text><text fill="#000000" font-family="sans-serif" font-size="11" lengthAdjust="spacingAndGlyphs" textLength="101" x="295.5" y="571.7408">rule: PlantCareRule</text><text fill="#000000" font-family="sans-serif" font-size="11" lengthAdjust="spacingAndGlyphs" textLength="98" x="295.5" y="586.7227">completedBy: User</text><text fill="#000000" font-family="sans-serif" font-size="11" lengthAdjust="spacingAndGlyphs" textLength="129" x="295.5" y="601.7046">completedAt: Timestamp</text><text fill="#000000" font-family="sans-serif" font-size="11" lengthAdjust="spacingAndGlyphs" textLength="72" x="295.5" y="616.6865">details: String</text><line style="stroke: #A80036; stroke-width: 1.5;" x1="290.5" x2="429.5" y1="623.9094" y2="623.9094"/><path d="M6,556.5 L6,584.206 A0,0 0 0 0 6,584.206 L254,584.206 A0,0 0 0 0 254,584.206 L254,574.5 L289.48,570.5 L254,566.5 L254,566.5 L244,556.5 L6,556.5 A0,0 0 0 0 6,556.5 " fill="#FBFB77" filter="url(#f1ns028k1c6kjm)" style="stroke: #A80036; stroke-width: 1.0;"/><path d="M244,556.5 L244,566.5 L254,566.5 L244,556.5 " fill="#FBFB77" style="stroke: #A80036; stroke-width: 1.0;"/><text fill="#000000" font-family="sans-serif" font-size="13" lengthAdjust="spacingAndGlyphs" textLength="227" x="12" y="575.397">user has taken care of a plant / history</text><!--MD5=[a8d31a8c7ff055ccafa84176f39e4ca9]
class WateringPlantCareDone--><rect fill="#FEFECE" filter="url(#f1ns028k1c6kjm)" height="48" id="WateringPlantCareDone" style="stroke: #A80036; stroke-width: 1.5;" width="168" x="20" y="700.5"/><ellipse cx="35" cy="716.5" fill="#ADD1B2" rx="11" ry="11" style="stroke: #A80036; stroke-width: 1.0;"/><path d="M37.9688,722.1406 Q37.3906,722.4375 36.75,722.5781 Q36.1094,722.7344 35.4063,722.7344 Q32.9063,722.7344 31.5781,721.0938 Q30.2656,719.4375 30.2656,716.3125 Q30.2656,713.1875 31.5781,711.5313 Q32.9063,709.875 35.4063,709.875 Q36.1094,709.875 36.75,710.0313 Q37.4063,710.1875 37.9688,710.4844 L37.9688,713.2031 Q37.3438,712.625 36.75,712.3594 Q36.1563,712.0781 35.5313,712.0781 Q34.1875,712.0781 33.5,713.1563 Q32.8125,714.2188 32.8125,716.3125 Q32.8125,718.4063 33.5,719.4844 Q34.1875,720.5469 35.5313,720.5469 Q36.1563,720.5469 36.75,720.2813 Q37.3438,720 37.9688,719.4219 L37.9688,722.1406 Z "/><text fill="#000000" font-family="sans-serif" font-size="12" lengthAdjust="spacingAndGlyphs" textLength="136" x="49" y="721.156">WateringPlantCareDone</text><line style="stroke: #A80036; stroke-width: 1.5;" x1="21" x2="187" y1="732.5" y2="732.5"/><line style="stroke: #A80036; stroke-width: 1.5;" x1="21" x2="187" y1="740.5" y2="740.5"/><!--MD5=[560cd315fc83ef501de3b9cb542462cb]
class SunlightPlantCareDone--><rect fill="#FEFECE" filter="url(#f1ns028k1c6kjm)" height="48" id="SunlightPlantCareDone" style="stroke: #A80036; stroke-width: 1.5;" width="162" x="223" y="700.5"/><ellipse cx="238" cy="716.5" fill="#ADD1B2" rx="11" ry="11" style="stroke: #A80036; stroke-width: 1.0;"/><path d="M240.9688,722.1406 Q240.3906,722.4375 239.75,722.5781 Q239.1094,722.7344 238.4063,722.7344 Q235.9063,722.7344 234.5781,721.0938 Q233.2656,719.4375 233.2656,716.3125 Q233.2656,713.1875 234.5781,711.5313 Q235.9063,709.875 238.4063,709.875 Q239.1094,709.875 239.75,710.0313 Q240.4063,710.1875 240.9688,710.4844 L240.9688,713.2031 Q240.3438,712.625 239.75,712.3594 Q239.1563,712.0781 238.5313,712.0781 Q237.1875,712.0781 236.5,713.1563 Q235.8125,714.2188 235.8125,716.3125 Q235.8125,718.4063 236.5,719.4844 Q237.1875,720.5469 238.5313,720.5469 Q239.1563,720.5469 239.75,720.2813 Q240.3438,720 240.9688,719.4219 L240.9688,722.1406 Z "/><text fill="#000000" font-family="sans-serif" font-size="12" lengthAdjust="spacingAndGlyphs" textLength="130" x="252" y="721.156">SunlightPlantCareDone</text><line style="stroke: #A80036; stroke-width: 1.5;" x1="224" x2="384" y1="732.5" y2="732.5"/><line style="stroke: #A80036; stroke-width: 1.5;" x1="224" x2="384" y1="740.5" y2="740.5"/><!--MD5=[81fb4f6fee824eb5ccf133cbe51d8d40]
class PruningPlantCareDone--><rect fill="#FEFECE" filter="url(#f1ns028k1c6kjm)" height="48" id="PruningPlantCareDone" style="stroke: #A80036; stroke-width: 1.5;" width="160" x="420" y="700.5"/><ellipse cx="435" cy="716.5" fill="#ADD1B2" rx="11" ry="11" style="stroke: #A80036; stroke-width: 1.0;"/><path d="M437.9688,722.1406 Q437.3906,722.4375 436.75,722.5781 Q436.1094,722.7344 435.4063,722.7344 Q432.9063,722.7344 431.5781,721.0938 Q430.2656,719.4375 430.2656,716.3125 Q430.2656,713.1875 431.5781,711.5313 Q432.9063,709.875 435.4063,709.875 Q436.1094,709.875 436.75,710.0313 Q437.4063,710.1875 437.9688,710.4844 L437.9688,713.2031 Q437.3438,712.625 436.75,712.3594 Q436.1563,712.0781 435.5313,712.0781 Q434.1875,712.0781 433.5,713.1563 Q432.8125,714.2188 432.8125,716.3125 Q432.8125,718.4063 433.5,719.4844 Q434.1875,720.5469 435.5313,720.5469 Q436.1563,720.5469 436.75,720.2813 Q437.3438,720 437.9688,719.4219 L437.9688,722.1406 Z "/><text fill="#000000" font-family="sans-serif" font-size="12" lengthAdjust="spacingAndGlyphs" textLength="128" x="449" y="721.156">PruningPlantCareDone</text><line style="stroke: #A80036; stroke-width: 1.5;" x1="421" x2="579" y1="732.5" y2="732.5"/><line style="stroke: #A80036; stroke-width: 1.5;" x1="421" x2="579" y1="740.5" y2="740.5"/><!--MD5=[4238b1353a5de7a689bba7a57c30afac]
class PlantCareRule--><rect fill="#FEFECE" filter="url(#f1ns028k1c6kjm)" height="107.9276" id="PlantCareRule" style="stroke: #A80036; stroke-width: 1.5;" width="112" x="737" y="516.5"/><ellipse cx="752.45" cy="532.5" fill="#ADD1B2" rx="11" ry="11" style="stroke: #A80036; stroke-width: 1.0;"/><path d="M755.4188,538.1406 Q754.8406,538.4375 754.2,538.5781 Q753.5594,538.7344 752.8563,538.7344 Q750.3563,538.7344 749.0281,537.0938 Q747.7156,535.4375 747.7156,532.3125 Q747.7156,529.1875 749.0281,527.5313 Q750.3563,525.875 752.8563,525.875 Q753.5594,525.875 754.2,526.0313 Q754.8563,526.1875 755.4188,526.4844 L755.4188,529.2031 Q754.7938,528.625 754.2,528.3594 Q753.6063,528.0781 752.9813,528.0781 Q751.6375,528.0781 750.95,529.1563 Q750.2625,530.2188 750.2625,532.3125 Q750.2625,534.4063 750.95,535.4844 Q751.6375,536.5469 752.9813,536.5469 Q753.6063,536.5469 754.2,536.2813 Q754.7938,536 755.4188,535.4219 L755.4188,538.1406 Z "/><text fill="#000000" font-family="sans-serif" font-size="12" lengthAdjust="spacingAndGlyphs" textLength="79" x="766.55" y="537.156">PlantCareRule</text><line style="stroke: #A80036; stroke-width: 1.5;" x1="738" x2="848" y1="548.5" y2="548.5"/><text fill="#000000" font-family="sans-serif" font-size="11" lengthAdjust="spacingAndGlyphs" textLength="44" x="743" y="564.2589">id: UUID</text><text fill="#000000" font-family="sans-serif" font-size="11" lengthAdjust="spacingAndGlyphs" textLength="60" x="743" y="579.2408">active: bool</text><text fill="#000000" font-family="sans-serif" font-size="11" lengthAdjust="spacingAndGlyphs" textLength="62" x="743" y="594.2227">cron: String</text><text fill="#000000" font-family="sans-serif" font-size="11" lengthAdjust="spacingAndGlyphs" textLength="100" x="743" y="609.2046">instructions: String</text><line style="stroke: #A80036; stroke-width: 1.5;" x1="738" x2="848" y1="616.4276" y2="616.4276"/><path d="M884.5,556.5 L884.5,566.5 L849.05,570.5 L884.5,574.5 L884.5,584.206 A0,0 0 0 0 884.5,584.206 L1111.5,584.206 A0,0 0 0 0 1111.5,584.206 L1111.5,566.5 L1101.5,556.5 L884.5,556.5 A0,0 0 0 0 884.5,556.5 " fill="#FBFB77" filter="url(#f1ns028k1c6kjm)" style="stroke: #A80036; stroke-width: 1.0;"/><path d="M1101.5,556.5 L1101.5,566.5 L1111.5,566.5 L1101.5,556.5 " fill="#FBFB77" style="stroke: #A80036; stroke-width: 1.0;"/><text fill="#000000" font-family="sans-serif" font-size="13" lengthAdjust="spacingAndGlyphs" textLength="206" x="890.5" y="575.397">cron defines the repetition interval</text><!--MD5=[3d7f0d4af41450c2db1b33603a3720f9]
class WateringPlantCareRule--><rect fill="#FEFECE" filter="url(#f1ns028k1c6kjm)" height="62.9819" id="WateringPlantCareRule" style="stroke: #A80036; stroke-width: 1.5;" width="162" x="615" y="693"/><ellipse cx="630" cy="709" fill="#ADD1B2" rx="11" ry="11" style="stroke: #A80036; stroke-width: 1.0;"/><path d="M632.9688,714.6406 Q632.3906,714.9375 631.75,715.0781 Q631.1094,715.2344 630.4063,715.2344 Q627.9063,715.2344 626.5781,713.5938 Q625.2656,711.9375 625.2656,708.8125 Q625.2656,705.6875 626.5781,704.0313 Q627.9063,702.375 630.4063,702.375 Q631.1094,702.375 631.75,702.5313 Q632.4063,702.6875 632.9688,702.9844 L632.9688,705.7031 Q632.3438,705.125 631.75,704.8594 Q631.1563,704.5781 630.5313,704.5781 Q629.1875,704.5781 628.5,705.6563 Q627.8125,706.7188 627.8125,708.8125 Q627.8125,710.9063 628.5,711.9844 Q629.1875,713.0469 630.5313,713.0469 Q631.1563,713.0469 631.75,712.7813 Q632.3438,712.5 632.9688,711.9219 L632.9688,714.6406 Z "/><text fill="#000000" font-family="sans-serif" font-size="12" lengthAdjust="spacingAndGlyphs" textLength="130" x="644" y="713.656">WateringPlantCareRule</text><line style="stroke: #A80036; stroke-width: 1.5;" x1="616" x2="776" y1="725" y2="725"/><text fill="#000000" font-family="sans-serif" font-size="11" lengthAdjust="spacingAndGlyphs" textLength="120" x="621" y="740.7589">waterAmount: Amount</text><line style="stroke: #A80036; stroke-width: 1.5;" x1="616" x2="776" y1="747.9819" y2="747.9819"/><!--MD5=[125b699aed6a99bf32ac3c8b68242fd5]
class SunlightPlantCareRule--><rect fill="#FEFECE" filter="url(#f1ns028k1c6kjm)" height="62.9819" id="SunlightPlantCareRule" style="stroke: #A80036; stroke-width: 1.5;" width="156" x="812" y="693"/><ellipse cx="827" cy="709" fill="#ADD1B2" rx="11" ry="11" style="stroke: #A80036; stroke-width: 1.0;"/><path d="M829.9688,714.6406 Q829.3906,714.9375 828.75,715.0781 Q828.1094,715.2344 827.4063,715.2344 Q824.9063,715.2344 823.5781,713.5938 Q822.2656,711.9375 822.2656,708.8125 Q822.2656,705.6875 823.5781,704.0313 Q824.9063,702.375 827.4063,702.375 Q828.1094,702.375 828.75,702.5313 Q829.4063,702.6875 829.9688,702.9844 L829.9688,705.7031 Q829.3438,705.125 828.75,704.8594 Q828.1563,704.5781 827.5313,704.5781 Q826.1875,704.5781 825.5,705.6563 Q824.8125,706.7188 824.8125,708.8125 Q824.8125,710.9063 825.5,711.9844 Q826.1875,713.0469 827.5313,713.0469 Q828.1563,713.0469 828.75,712.7813 Q829.3438,712.5 829.9688,711.9219 L829.9688,714.6406 Z "/><text fill="#000000" font-family="sans-serif" font-size="12" lengthAdjust="spacingAndGlyphs" textLength="124" x="841" y="713.656">SunlightPlantCareRule</text><line style="stroke: #A80036; stroke-width: 1.5;" x1="813" x2="967" y1="725" y2="725"/><text fill="#000000" font-family="sans-serif" font-size="11" lengthAdjust="spacingAndGlyphs" textLength="143" x="818" y="740.7589">sunlightDuration: Duration</text><line style="stroke: #A80036; stroke-width: 1.5;" x1="813" x2="967" y1="747.9819" y2="747.9819"/><!--MD5=[f1a9d9999206a6502e473ad79034c783]
class PruningPlantCareRule--><rect fill="#FEFECE" filter="url(#f1ns028k1c6kjm)" height="62.9819" id="PruningPlantCareRule" style="stroke: #A80036; stroke-width: 1.5;" width="221" x="1003.5" y="693"/><ellipse cx="1048.75" cy="709" fill="#ADD1B2" rx="11" ry="11" style="stroke: #A80036; stroke-width: 1.0;"/><path d="M1051.7188,714.6406 Q1051.1406,714.9375 1050.5,715.0781 Q1049.8594,715.2344 1049.1563,715.2344 Q1046.6563,715.2344 1045.3281,713.5938 Q1044.0156,711.9375 1044.0156,708.8125 Q1044.0156,705.6875 1045.3281,704.0313 Q1046.6563,702.375 1049.1563,702.375 Q1049.8594,702.375 1050.5,702.5313 Q1051.1563,702.6875 1051.7188,702.9844 L1051.7188,705.7031 Q1051.0938,705.125 1050.5,704.8594 Q1049.9063,704.5781 1049.2813,704.5781 Q1047.9375,704.5781 1047.25,705.6563 Q1046.5625,706.7188 1046.5625,708.8125 Q1046.5625,710.9063 1047.25,711.9844 Q1047.9375,713.0469 1049.2813,713.0469 Q1049.9063,713.0469 1050.5,712.7813 Q1051.0938,712.5 1051.7188,711.9219 L1051.7188,714.6406 Z "/><text fill="#000000" font-family="sans-serif" font-size="12" lengthAdjust="spacingAndGlyphs" textLength="122" x="1069.25" y="713.656">PruningPlantCareRule</text><line style="stroke: #A80036; stroke-width: 1.5;" x1="1004.5" x2="1223.5" y1="725" y2="725"/><text fill="#000000" font-family="sans-serif" font-size="11" lengthAdjust="spacingAndGlyphs" textLength="209" x="1009.5" y="740.7589">amount: enum LITTLE, MORE, MUCH ???</text><line style="stroke: #A80036; stroke-width: 1.5;" x1="1004.5" x2="1223.5" y1="747.9819" y2="747.9819"/><!--MD5=[a1c461971c1d16a7d2479aa5fad74c00]
link GMN6 to UserHome--><path d="M315.1,200.42 C373.09,165.34 533.81,80.25 659.5,128.5 C680.95,136.74 700.6,152.27 716.43,167.89 " fill="none" id="GMN6-UserHome" style="stroke: #A80036; stroke-width: 1.0; stroke-dasharray: 7.0,7.0;"/><!--MD5=[0805d132f4ffa8a4d937c6c78a5088b3]
link User to UserHome--><path d="M755,87.54 C755,111.48 755,142.51 755,167.79 " fill="none" id="User-UserHome" style="stroke: #A80036; stroke-width: 1.0;"/><text fill="#000000" font-family="sans-serif" font-size="13" lengthAdjust="spacingAndGlyphs" textLength="7" x="747.4203" y="109.3723">1</text><text fill="#000000" font-family="sans-serif" font-size="13" lengthAdjust="spacingAndGlyphs" textLength="7" x="747.4641" y="156.2912">*</text><!--MD5=[fbcea0160c3544252bfc4090b17cd2a3]
link Home to UserHome--><path d="M641.33,87.54 C662.93,111.48 690.94,142.51 713.75,167.79 " fill="none" id="Home-UserHome" style="stroke: #A80036; stroke-width: 1.0;"/><text fill="#000000" font-family="sans-serif" font-size="13" lengthAdjust="spacingAndGlyphs" textLength="7" x="639.4362" y="109.3723">1</text><text fill="#000000" font-family="sans-serif" font-size="13" lengthAdjust="spacingAndGlyphs" textLength="7" x="699.8977" y="156.2912">*</text><!--MD5=[131449dba1ace9d8b48afde3d2e33c23]
reverse link Home to Group--><path d="M606.06,100.81 C605.62,124.94 605.1,153.2 604.7,175.39 " fill="none" id="Home&lt;-Group" style="stroke: #A80036; stroke-width: 1.0;"/><polygon fill="#A80036" points="606.3,87.54,602.1886,93.4642,606.0759,99.5379,610.1872,93.6137,606.3,87.54" style="stroke: #A80036; stroke-width: 1.0;"/><text fill="#000000" font-family="sans-serif" font-size="13" lengthAdjust="spacingAndGlyphs" textLength="21" x="607" y="133.897">has</text><text fill="#000000" font-family="sans-serif" font-size="13" lengthAdjust="spacingAndGlyphs" textLength="7" x="598.6044" y="109.3723">1</text><text fill="#000000" font-family="sans-serif" font-size="13" lengthAdjust="spacingAndGlyphs" textLength="20" x="582.9853" y="163.5773">1..*</text><!--MD5=[29276b2f0f27820fd4b9804fe7403805]
reverse link Group to Plant--><path d="M604,266.88 C604,289.78 604,316.73 604,339.84 " fill="none" id="Group&lt;-Plant" style="stroke: #A80036; stroke-width: 1.0;"/><polygon fill="#A80036" points="604,253.58,600,259.58,604,265.58,608,259.58,604,253.58" style="stroke: #A80036; stroke-width: 1.0;"/><text fill="#000000" font-family="sans-serif" font-size="13" lengthAdjust="spacingAndGlyphs" textLength="51" x="605" y="305.897">contains</text><text fill="#000000" font-family="sans-serif" font-size="13" lengthAdjust="spacingAndGlyphs" textLength="7" x="596.4203" y="275.4189">1</text><text fill="#000000" font-family="sans-serif" font-size="13" lengthAdjust="spacingAndGlyphs" textLength="7" x="596.5297" y="328.3694">*</text><!--MD5=[0e43a9c57a9ce4af99c3bc0fe2ab4477]
reverse link Plant to PlantCareDone--><path d="M521.73,453.83 C492.2,474.95 459.18,498.57 430.72,518.93 " fill="none" id="Plant&lt;-PlantCareDone" style="stroke: #A80036; stroke-width: 1.0;"/><polygon fill="#A80036" points="532.44,446.18,525.2327,446.4153,522.6779,453.1586,529.8851,452.9233,532.44,446.18" style="stroke: #A80036; stroke-width: 1.0;"/><text fill="#000000" font-family="sans-serif" font-size="13" lengthAdjust="spacingAndGlyphs" textLength="7" x="517.6994" y="447.6217">1</text><text fill="#000000" font-family="sans-serif" font-size="13" lengthAdjust="spacingAndGlyphs" textLength="7" x="438.3739" y="509.6734">*</text><!--MD5=[2822dac39073e91d0506a782f442d3dc]
reverse link Plant to PlantCareRule--><path d="M671.18,457.02 C692.64,476.84 716.17,498.56 736.77,517.59 " fill="none" id="Plant&lt;-PlantCareRule" style="stroke: #A80036; stroke-width: 1.0;"/><polygon fill="#A80036" points="661.48,448.07,663.1787,455.0782,670.3012,456.2055,668.6024,449.1974,661.48,448.07" style="stroke: #A80036; stroke-width: 1.0;"/><text fill="#000000" font-family="sans-serif" font-size="13" lengthAdjust="spacingAndGlyphs" textLength="7" x="661.0588" y="469.6402">1</text><text fill="#000000" font-family="sans-serif" font-size="13" lengthAdjust="spacingAndGlyphs" textLength="7" x="722.1171" y="506.6687">*</text><!--MD5=[d38820e7a380f555dfad32c9b2592890]
reverse link PlantCareDone to WateringPlantCareDone--><path d="M272.42,631.13 C271.95,631.42 271.47,631.71 271,632 C230.53,656.76 182.96,682.51 148.96,700.37 " fill="none" id="PlantCareDone&lt;-WateringPlantCareDone" style="stroke: #A80036; stroke-width: 1.0;"/><polygon fill="none" points="268.83,625.12,289.48,620.34,276.32,636.95,268.83,625.12" style="stroke: #A80036; stroke-width: 1.0;"/><!--MD5=[f41205bb91ec515cd349e18f79002977]
reverse link PlantCareDone to SunlightPlantCareDone--><path d="M330.77,650.84 C324.09,668.98 317.5,686.87 312.53,700.36 " fill="none" id="PlantCareDone&lt;-SunlightPlantCareDone" style="stroke: #A80036; stroke-width: 1.0;"/><polygon fill="none" points="324.22,648.36,337.71,632.01,337.36,653.2,324.22,648.36" style="stroke: #A80036; stroke-width: 1.0;"/><!--MD5=[1a5eb897aff4aaf54f343ae652541dbe]
reverse link PlantCareDone to PruningPlantCareDone--><path d="M429.38,646.82 C447.33,666.32 465.34,685.87 478.68,700.36 " fill="none" id="PlantCareDone&lt;-PruningPlantCareDone" style="stroke: #A80036; stroke-width: 1.0;"/><polygon fill="none" points="424.13,651.46,415.73,632.01,434.43,641.98,424.13,651.46" style="stroke: #A80036; stroke-width: 1.0;"/><!--MD5=[7c0d1495333b4f964f9c83e9ac76391a]
reverse link PlantCareRule to WateringPlantCareRule--><path d="M748.26,641.61 C736.8,659.56 725.07,677.95 715.63,692.75 " fill="none" id="PlantCareRule&lt;-WateringPlantCareRule" style="stroke: #A80036; stroke-width: 1.0;"/><polygon fill="none" points="742.41,637.76,759.07,624.66,754.22,645.29,742.41,637.76" style="stroke: #A80036; stroke-width: 1.0;"/><!--MD5=[6ce6b2bf610e286c1654702b1dbe32d0]
reverse link PlantCareRule to SunlightPlantCareRule--><path d="M837.74,641.61 C849.2,659.56 860.93,677.95 870.37,692.75 " fill="none" id="PlantCareRule&lt;-SunlightPlantCareRule" style="stroke: #A80036; stroke-width: 1.0;"/><polygon fill="none" points="831.78,645.29,826.93,624.66,843.59,637.76,831.78,645.29" style="stroke: #A80036; stroke-width: 1.0;"/><!--MD5=[5d58aab51843f1a3f233e1f895556260]
reverse link PlantCareRule to PruningPlantCareRule--><path d="M866.45,631.68 C866.63,631.79 866.82,631.89 867,632 C911.05,657.22 963.34,677.78 1008.44,692.97 " fill="none" id="PlantCareRule&lt;-PruningPlantCareRule" style="stroke: #A80036; stroke-width: 1.0;"/><polygon fill="none" points="862.42,637.42,849.42,620.69,870.02,625.66,862.42,637.42" style="stroke: #A80036; stroke-width: 1.0;"/><!--MD5=[3bab830985708274ea5ed5eb70a3f5fe]
@startuml

note as N1
  publicNames are displayed to other Users
  They should be unique

  Names and Content are subject to change
end note

class User {
  id: UUID
  publicName: String
}

class Home {
  id: UUID
  publicName: String
}

class UserHome {
  userId: UUID
  homeId: UUID
  joinedAt: Timestamp
}
note left: many-to-many relationship (User and Home) - PK (userId and homeId)

class Group {
  id: UUID
  publicName: String
}

class Plant {
  id: UUID
  publicName: String
  scientificName: String
  metadata: PlantMetadata
}

class PlantCareDone {
  id: UUID
  rule: PlantCareRule
  completedBy: User
  completedAt: Timestamp
  details: String
}
note left: user has taken care of a plant / history

class WateringPlantCareDone {}

class SunlightPlantCareDone {}

class PruningPlantCareDone {}

class PlantCareRule {
  id: UUID
  active: bool
  cron: String
  instructions: String
}
note right: cron defines the repetition interval

class WateringPlantCareRule {
  waterAmount: Amount
}

class SunlightPlantCareRule {
  sunlightDuration: Duration
}

class PruningPlantCareRule {
  amount: enum LITTLE, MORE, MUCH ???
}

User "1" - - "*" UserHome
Home "1" - - "*" UserHome
Home "1" *- - "1..*" Group : has
Group "1" *- - "*" Plant : contains

Plant "1" *- - "*" PlantCareDone
Plant "1" *- - "*" PlantCareRule

PlantCareDone <|- - WateringPlantCareDone
PlantCareDone <|- - SunlightPlantCareDone
PlantCareDone <|- - PruningPlantCareDone

PlantCareRule <|- - WateringPlantCareRule
PlantCareRule <|- - SunlightPlantCareRule
PlantCareRule <|- - PruningPlantCareRule

@enduml

PlantUML version 1.2020.02(Sun Mar 01 11:22:07 CET 2020)
(GPL source distribution)
Java Runtime: OpenJDK Runtime Environment
JVM: OpenJDK 64-Bit Server VM
Java Version: 21.0.5+11-LTS
Operating System: Linux
Default Encoding: UTF-8
Language: en
Country: US
--></g></svg>